<?xml version="1.0" encoding="UTF-8"?>
<svg xmlns="http://www.w3.org/2000/svg" version="1.1" viewBox="0 0 41.2 128">
  <defs>
    <style>
      .cls-1 {
        fill: #03599c;
      }
    </style>
  </defs>
  <!-- Generator: Adobe Illustrator 28.7.4, SVG Export Plug-In . SVG Version: 1.2.0 Build 166)  -->
  <g>
    <g id="Layer_1">
      <g id="Layer_1-2" data-name="Layer_1">
        <path class="cls-1" d="M41,52.3h.2c-.2-.5-.6-.9-.9-1.1l-18.5-10.5c-.3-.2-.8-.3-1.1-.3s-.8,0-1.1.3L1,51.3c-.6.4-1.1,1.4-1.1,2.1v21.3c0,.4,0,.9.3,1.3H.3c.2.4.5.6.7.8l18.4,10.7c.3.2.8.2,1.1.2s.9-.2,1.1-.2l18.3-10.7c.6-.4,1.1-1.4,1.1-2.1v-21.3c0-.3,0-.7-.2-1h0ZM20.6,73.3c3.4,0,6.5-1.9,8.2-4.7l5,2.9c-2.6,4.5-7.5,7.6-13.1,7.6-8.3,0-15.1-6.7-15.1-15.1s6.7-15.1,15.1-15.1,10.5,3.1,13.1,7.6l-5,2.9c-1.6-2.9-4.7-4.7-8.2-4.7-5.2,0-9.3,4.2-9.3,9.3s4.2,9.3,9.3,9.3Z"/>
      </g>
    </g>
  </g>
</svg>