<?xml version="1.0" encoding="UTF-8"?>
<svg xmlns="http://www.w3.org/2000/svg" version="1.1" viewBox="0 0 41.2 128">
  <defs>
    <style>
      .cls-1 {
        fill: #ea2d2e;
      }
    </style>
  </defs>
  <!-- Generator: Adobe Illustrator 28.7.4, SVG Export Plug-In . SVG Version: 1.2.0 Build 166)  -->
  <g>
    <g id="Layer_1">
      <path class="cls-1" d="M13.3,79.3c-8.6,2.4,5.2,7.4,16.2,2.7-1.8-.7-3.1-1.5-3.1-1.5-4.9.9-7.1,1-11.6.5-3.7-.4-1.5-1.7-1.5-1.7ZM28.1,74.6c-6.5,1.2-10.2,1.2-14.9.7-3.7-.4-1.3-2.2-1.3-2.2-9.5,3.1,5.3,6.7,18.5,2.8-1.4-.5-2.3-1.4-2.3-1.4ZM33.2,47.5s-19.1,4.8-10,15.3c2.7,3.1-.7,5.9-.7,5.9,0,0,6.8-3.5,3.7-8-2.9-4.1-5.2-6.2,7-13.2ZM37.7,83.8s1.6,1.3-1.7,2.3c-6.3,1.9-26.3,2.5-31.8,0-2-.9,1.7-2.1,2.9-2.3,1.2-.3,1.9-.2,1.9-.2-2.2-1.6-14.3,3.1-6.1,4.4,22.3,3.6,40.6-1.6,34.9-4.2ZM30,70.2c1.1-.7,2.6-1.4,2.6-1.4,0,0-4.2.8-8.4,1.1-5.1.4-10.7.5-13.4.1-6.6-.9,3.6-3.3,3.6-3.3,0,0-3.9-.3-8.8,2.1-5.7,2.8,14.2,4,24.5,1.3ZM32.5,77c0,.1-.2.3-.2.3,14-3.7,8.8-13,2.2-10.6-.6.2-.9.7-.9.7,0,0,.4-.1,1.2-.3,3.4-.7,8.2,4.5-2.3,10ZM20.7,66.7c-2.1-4.7-9.1-8.8,0-15.9,11.3-8.9,5.5-14.7,5.5-14.7,2.3,9.2-8.3,12-12.1,17.8-2.6,3.9,1.3,8.1,6.6,12.9ZM32.9,89.9c-8.6,1.6-19.2,1.4-25.5.4,0,0,1.3,1.1,7.9,1.5,10.1.6,25.5-.4,25.9-5.1,0,0-.7,1.8-8.3,3.2Z"/>
    </g>
  </g>
</svg>