<?xml version="1.0" encoding="UTF-8"?>
<svg xmlns="http://www.w3.org/2000/svg" version="1.1" viewBox="0 0 41.2 128">
  <defs>
    <style>
      .cls-1 {
        fill: #38bdf8;
      }
    </style>
  </defs>
  <!-- Generator: Adobe Illustrator 28.7.4, SVG Export Plug-In . SVG Version: 1.2.0 Build 166)  -->
  <g>
    <g id="Layer_1">
      <path class="cls-1" d="M20.6,51.6c-5.5,0-8.9,2.7-10.3,8.2,2.1-2.7,4.5-3.8,7.2-3.1,1.6.4,2.7,1.5,3.9,2.8,2,2,4.4,4.4,9.5,4.4s8.9-2.7,10.3-8.2c-2.1,2.7-4.5,3.8-7.2,3.1-1.6-.4-2.7-1.5-3.9-2.8-2-2-4.4-4.4-9.5-4.4ZM10.3,64c-5.5,0-8.9,2.7-10.3,8.2,2.1-2.7,4.5-3.8,7.2-3.1,1.6.4,2.7,1.5,3.9,2.8,2,2,4.4,4.4,9.5,4.4s8.9-2.7,10.3-8.2c-2.1,2.7-4.5,3.8-7.2,3.1-1.6-.4-2.7-1.5-3.9-2.8-2-2-4.4-4.4-9.5-4.4Z"/>
    </g>
  </g>
</svg>