<?xml version="1.0" encoding="UTF-8"?>
<svg xmlns="http://www.w3.org/2000/svg" version="1.1" viewBox="0 0 41.2 128">
  <defs>
    <style>
      .cls-1 {
        fill: #f0db4f;
      }

      .cls-2 {
        fill: #e44d26;
      }

      .cls-3 {
        fill: #1572b6;
      }
    </style>
  </defs>
  <!-- Generator: Adobe Illustrator 28.7.4, SVG Export Plug-In . SVG Version: 1.2.0 Build 166)  -->
  <g>
    <g id="Layer_1">
      <g id="Layer_1-2" data-name="Layer_1">
        <path class="cls-1" d="M0,0v41.2h41.2V0H0ZM21.8,35.1c-.6,1.2-1.8,2-3.1,2.4-2.1.5-4,.2-5.5-.7-1-.6-1.8-1.5-2.3-2.6l3.1-1.9s.1.2.2.4c.4.7.7,1.1,1.4,1.5.7.2,2.1.4,2.7-.8s.2-2.5.2-4.6v-10h3.9v10.6c0,2.2.2,4.1-.7,5.7h.1ZM37.8,34.1c-1.3,4.6-8.8,4.7-11.8,1.7-.6-.7-1-1.1-1.4-1.9,1.1-.6,2.1-1.2,3.1-1.8.8,1.3,1.6,2,3,2.3,1.9.2,3.8-.4,3.4-2.4-.4-1.6-3.9-2-6.2-3.8-2.4-1.6-2.9-5.5-1-7.7.7-.8,1.8-1.4,2.9-1.7l1.2-.2c2.3,0,3.8.6,4.9,1.8.3.3.5.6,1,1.3q-1.2.8-3,1.9c-.4-.8-1-1.3-1.7-1.6-1-.3-2.3,0-2.6,1.1v1.2c.4,1,1.8,1.4,3.1,2,3.6,1.5,4.9,3.1,5.2,4.9.3,1.6,0,2.7,0,2.8h0Z"/>
        <path class="cls-3" d="M6,51.5l2.7,29.9,11.9,3.3,12-3.3,2.7-29.9H6ZM28.8,68.2l-.8,7.2v.6l-7.4,2.1h0l-7.5-2.1-.5-5.7h3.7l.3,2.9,4.1,1.1h0l4.1-1.2.4-4.8h-8.5v-.8l-.2-1.9v-1h9.1l.3-3.6h-14v-.9l-.2-2v-1.1h18.3v1.1l-1,10M28.9,47.7l-2.4-2.8h2.4v-1.7h-5.3v1.4l2.8,2.5h-2.8v1.6h5.3v-1.2.2ZM22.6,47.7l-2.2-2.8h2.2v-1.7h-4.9v1.4l2.6,2.5h-2.6v1.6h4.9v-1.2.2ZM16.7,47.2h-2.6v-2.3h2.6v-1.7h-4.6v5.6h4.6v-1.6Z"/>
        <path class="cls-2" d="M5.5,95.1l2.7,29.7,12,3.2,12-3.1,2.7-29.7H5.5ZM29.2,101.9l-.2,1.9v.9h-14.1l.3,4h13.4v.7l-1,9.5v.6l-7.6,2h0l-7.5-2-.5-5.6h3.7l.3,2.8,4.1,1h0l4.1-.9.4-4.5h-12.7l-.9-10.2v-1h18.3v.8h0ZM8.2,86.8h1.9v1.8h1.7v-1.8h1.9v5.6h-1.9v-1.9h-1.7v1.9h-1.9v-5.6ZM16.1,88.6h-1.6v-1.8h5.1v1.8h-1.6v3.7h-1.9v-3.7ZM20.4,86.8h1.9l1.2,2,1.2-2h1.9v5.6h-1.8v-2.8l-1.3,2h0l-1.3-2v2.8h-1.8v-5.6h0ZM27.6,86.8h1.9v3.7h2.6v1.8h-4.5v-5.6h0Z"/>
      </g>
    </g>
  </g>
</svg>