<?xml version="1.0" encoding="UTF-8"?>
<svg xmlns="http://www.w3.org/2000/svg" version="1.1" viewBox="0 0 41.2 128">
  <defs>
    <style>
      .cls-1 {
        fill: #494949;
        fill-rule: evenodd;
      }
    </style>
  </defs>
  <!-- Generator: Adobe Illustrator 28.7.4, SVG Export Plug-In . SVG Version: 1.2.0 Build 166)  -->
  <g>
    <g id="Layer_1">
      <g id="Layer_1-2" data-name="Layer_1">
        <path class="cls-1" d="M19.1,80c-.8,0-1.6,0-2.4,0s-.1,0-.3.1c0,0,.1.1.2.1.4,0,.5.3.5.6v2.2c0,.5-.3.7-.7.6-.2,0-.5-.1-.7-.3-.4-.3-.7-.7-1.2-1.1h.3c.7-.3.9-.7.9-1.3,0-.5-.5-.9-1.1-1-.8,0-1.6,0-2.4,0,0,0-.1,0-.2.1,0,0,.1.1.2.1.5,0,.5.3.5.7v2.1c0,.4-.1.6-.5.7,0,0-.1,0-.2.1,0,0,.1.1.3.1h1.9c0,0,.1,0,.3-.1h-.2c-.1-.3-.4-.3-.5-.5,0-.3,0-.7,0-1h.1c0,0,.2.1.3.3.3.4.6.7.9,1.2,0,0,.2.2.3.2,1.4,0,2.7,0,4.1,0,.7,0,1.4-.5,1.6-1.3.4-1.3-.3-2.4-1.8-2.6h0ZM13.5,81.8v-1.6c.3,0,.9-.1,1.1.3s.1.7,0,.9c-.2.5-.7.4-1.1.3h0ZM19.8,82.9c-.2.5-1,.8-1.5.6-.1,0-.3-.3-.3-.4v-2.8c.7,0,1.4,0,1.7.5.4.6.3,1.4,0,2ZM33.1,83.5c-.3.1-.8.1-1.1,0-.5-.3-.2-.9-.3-1.4.5,0,.8.2.9.5h.1c0,0,.1,0,.1,0v-1.4s0-.1-.1-.3c-.1.3-.1.5-.3.6-.2.1-.7.1-.7.2v-1.4h1.1c.5,0,.4.5.7.7h.1v-1.2c-1.1-.1-3.4,0-3.6.1,0,0,.1.1.2.1.5,0,.6.3.6.7v2c0,.8-.5,1-1.2.6-.5-.3-.9-.7-1.2-1.1.3-.3.7-.6.9-.9.3-.7-.2-1.4-1.1-1.4-.7,0-1.6,0-2.4,0s-.1,0-.2.1c0,0,.1.1.2.1.5,0,.5.3.5.7v1.6c0,.6-.2,1-.7,1.2h0c0,.1.1.2.3.2h1.8c0,0,.2,0,.3-.1,0,0-.2-.1-.3-.1-.3,0-.5-.2-.5-.5v-.9c.1.1.3.2.3.3.3.4.6.7.9,1.2.1.2.3.3.5.3h4.5v-1c-.3.2-.5.5-.7.6h-.1ZM27.4,81.8v-1.5c.7,0,1.2.1,1.2.7s-.2.8-1.2.8h0ZM7.9,78.9c-.3-.2-2.1-.2-2.3,0,.1,0,.3,0,.3,0,.3,0,.5.3.3.5-.3.9-.5,1.7-.9,2.6,0-.2-.1-.3-.1-.3-.3-.9-.6-1.8-.9-2.8,0-.1-.1-.3-.3-.4,0,.1-.2.2-.3.4-.3,1-.7,2-1,3h0c-.3-.7-.5-1.5-.7-2.2-.2-.6-.1-.7.5-.9,0,0,.1,0,.2-.1h-.1c-.7-.1-1.6-.1-2.3-.1,0,0-.1,0-.1.1,0,0,0,.1.1.1.7,0,.9.5,1,1.1.4,1.2.8,2.4,1.2,3.7,0,.1.1.3.2.4h.1l1.2-3.7,1.2,3.7h.1c0-.1.1-.3.1-.4.4-1.3.9-2.6,1.3-3.9.1-.5.4-.8.9-.9,0,0,.1,0,.2,0h0ZM24.3,78.8c-1-.1-2,0-3,0,0,0-.1,0-.2.1.1,0,.2,0,.3,0,.5,0,.7.3.7.7v3.1c0,.4-.2.7-.7.7s-.1.1-.2.1c0,0,.2.1.3.1h2.2c0,0,.1,0,.3-.1,0,0-.1-.1-.2-.1-.3,0-.6-.2-.7-.5,0-.5,0-.9,0-1.4h.9c.7,0,1.4-.3,1.6-1,.3-.8-.2-1.7-1.2-1.8h0ZM24.5,80.8c-.2.4-.5.5-1.5.4v-2c.3,0,1.1-.1,1.4.4.3.4.3.8,0,1.2h0ZM11.1,80.4c-.9-.8-2.4-.7-3.3,0-.8.7-.9,1.9-.3,2.8.5.6,1.2.9,2,.9s.3,0,.5,0c.9-.2,1.6-.7,1.8-1.6.2-.8,0-1.5-.7-2h0ZM10.5,83.2c-.6.7-1.8.6-2.2-.3-.3-.5-.3-1.2-.1-1.8.2-.7.7-1,1.4-1s1.2.3,1.4,1c0,.2.1.5.1.7h0c-.2.5-.3.9-.5,1.3ZM40.2,81.6c-.3-.2-.7-.3-1.1-.6-.1,0-.3-.3-.2-.5,0-.1.3-.3.4-.4.5-.1.9.1,1.2.7,0,.1.2.2.3.3h.1v-1.5c-.3.1-.3.3-.3.3-.5,0-.9-.1-1.2-.1s-.9.3-1,.7c-.1.5,0,.9.5,1.2.1,0,.3.1.4.2.3.1.6.3.9.5.3.1.5.3.4.7s-.5.4-.8.4c-.6,0-.9-.4-1.2-1,0,0-.1-.1-.2-.2,0,0-.1,0-.1.1v1.5h.1l.3-.3c.2,0,.4.2.6.3.7.3,1.6,0,1.8-.7.3-.6,0-1.2-.8-1.6h0ZM36.6,81.6c-.3-.1-.7-.3-1-.5-.2-.1-.5-.3-.3-.6.1-.2.4-.3.6-.3.5,0,.7.2.9.7,0,.1.1.2.2.3h.1v-1.5l-.3.3c0,0-.1,0-.2-.1-.7-.3-1.6,0-1.8.5-.3.6,0,1.2.8,1.6.3.1.7.3,1,.5.3.1.4.4.3.7-.1.2-.4.3-.6.4-.5,0-1-.3-1.2-.7,0-.1,0-.3-.1-.3,0,0-.1,0-.2-.1h0v1.4s0,.1,0,.1c0,0,.1,0,.1,0s0-.1.1-.3c.2.1.4.2.6.3.7.3,1.6,0,1.9-.7.3-.7,0-1.2-.8-1.6h-.1ZM20.7,74.3c8.9,0,16.2-7.3,16.2-16.3,0-8.9-7.2-16.1-15.9-16.3-9.1-.1-16.7,7.2-16.7,16.1s7.2,16.5,16.2,16.5h0ZM20.6,42.5c8.6,0,15.4,7,15.4,15.8s-7,15.2-15.4,15.2-15.4-7-15.4-15.6c0-8.5,7-15.4,15.4-15.4ZM14.1,50.7c.1.5-.3.6-.7.7-.5,0-.9,0-1.4.1l5.1,15c.1-.2.2-.3.2-.3.9-2.8,1.9-5.6,2.8-8.4,0-.3,0-.6,0-.9-.5-1.4-1.1-2.8-1.5-4.1-.3-.9-.7-1.6-1.8-1.5-.2,0-.4-.4-.7-.6.3-.1.5-.5.8-.5h7c.3,0,.5.3.8.5-.2.2-.4.5-.7.6-.4.1-.9.1-1.4.1l5.1,15c.7-2.6,1.5-4.9,2.2-7.2.6-2.1.3-4.1-.9-5.9-.3-.5-.7-1.1-.9-1.7-.2-.7-.4-1.5-.3-2.2.2-1.2,1.1-1.8,2.3-1.8-6.7-6.1-17.1-3.9-21,2.8,1.5,0,2.9-.1,4.3-.2.3,0,.7.2.7.4h0ZM16.8,71.1v.3c2.8.8,5.7.7,8.5-.2l-4.4-12.1c-1.4,4.1-2.8,8-4.1,11.9ZM14.6,70.5l-6.6-18.1c-3,5.8-.7,14.7,6.6,18.1ZM34.6,58.9c.2-2.8-.7-6.6-1.6-7.1,0,1,0,2.2-.3,3.2-.7,2.4-1.5,4.8-2.3,7.2-.9,2.6-1.8,5.1-2.7,7.8,4.2-2.5,6.5-6.2,6.9-11Z"/>
      </g>
    </g>
  </g>
</svg>