<?xml version="1.0" encoding="UTF-8"?>
<svg xmlns="http://www.w3.org/2000/svg" version="1.1" viewBox="0 0 41.2 128">
  <defs>
    <style>
      .cls-1 {
        fill: #470137;
      }
    </style>
  </defs>
  <!-- Generator: Adobe Illustrator 28.7.4, SVG Export Plug-In . SVG Version: 1.2.0 Build 166)  -->
  <g>
    <g id="Layer_1">
      <g id="Layer_1-2" data-name="Layer_1">
        <path class="cls-1" d="M7.2,43.9C3.2,43.9,0,47.2,0,51.2v25.6c0,4.1,3.3,7.3,7.3,7.3h26.6c4.1,0,7.3-3.3,7.3-7.3v-25.6c0-4.1-3.3-7.3-7.3-7.3H7.2ZM31.5,52.7h3.5c0,0,.1,0,.2.1v17.4c0,.4,0,.7,0,1,0,.1,0,.2-.2.3-.9.4-1.9.6-2.8.8-.9.1-1.7.3-2.6.3-1.3,0-2.5-.3-3.7-.8-1.1-.5-2-1.4-2.6-2.3-.6-1-1-2.4-1-3.9s.3-2.5,1-3.6,1.6-2.1,2.7-2.6c1.2-.6,2.6-1,4.3-1s.2,0,.4,0h.5v-5.4c0-.1,0-.2.2-.2h0ZM6.3,54.2h4.2c0,0,.1,0,.2.1.3.7.7,1.5,1.1,2.2s.8,1.5,1.2,2.2.8,1.4,1.2,2.2h0c.4-.8.7-1.5,1.1-2.2s.8-1.4,1.2-2.2c.4-.7.8-1.5,1.2-2.2,0,0,0-.1.1-.2h3.8c0,0,.2,0,.2.1h0c0,.1-5.2,8.6-5.2,8.6l5.5,9v.2c0,0,0,0-.2,0h-3.9c-.3,0-.5,0-.6-.2-.4-.7-.7-1.4-1.1-2.1s-.8-1.4-1.2-2.2c-.4-.8-.8-1.5-1.2-2.3h0c-.4.7-.8,1.5-1.2,2.2-.4.7-.8,1.5-1.2,2.2-.4.7-.8,1.5-1.2,2.2,0,.2-.2.2-.4.2h-3.9v-.2l5.4-8.8-5.2-8.8c0,0,0-.1,0-.2,0,0,.1,0,.2,0h0ZM30.3,61.5c-.6,0-1.4.1-1.9.5s-1.1.7-1.5,1.3-.6,1.3-.6,2.2,0,1.2.3,1.7c.2.5.5.9.8,1.2s.7.6,1.2.7c.5.1,1,.2,1.4.2h.7c.2,0,.4,0,.6,0v-7.5c-.1,0-.3,0-.5,0h-.6,0Z"/>
      </g>
    </g>
  </g>
</svg>